<svg id="Layer_1" height="512" viewBox="0 0 512 512" width="512" xmlns="http://www.w3.org/2000/svg" data-name="Layer 1"><path d="m482.777 478.586c-13.807 0-20.417-5.733-28.071-12.373-8.008-6.947-17.084-14.82-34.624-14.82s-26.616 7.873-34.624 14.819c-7.654 6.64-14.265 12.374-28.072 12.374s-20.417-5.733-28.071-12.373c-8.007-6.946-17.084-14.82-34.624-14.82s-26.615 7.873-34.622 14.82c-7.653 6.639-14.263 12.373-28.07 12.373s-20.414-5.733-28.066-12.373c-8.006-6.946-17.081-14.82-34.62-14.82s-26.612 7.874-34.618 14.82c-7.652 6.64-14.261 12.373-28.065 12.373s-20.417-5.733-28.07-12.373c-8.008-6.946-17.083-14.82-34.623-14.82a5 5 0 0 0 0 10c13.806 0 20.417 5.734 28.07 12.374 8.007 6.946 17.083 14.819 34.623 14.819s26.612-7.873 34.618-14.82c7.652-6.639 14.262-12.373 28.065-12.373s20.415 5.734 28.067 12.374c8.006 6.946 17.081 14.819 34.619 14.819s26.616-7.873 34.623-14.819c7.653-6.64 14.263-12.374 28.069-12.374s20.418 5.734 28.072 12.374c8.008 6.946 17.083 14.819 34.623 14.819s26.617-7.873 34.625-14.819c7.654-6.64 14.263-12.374 28.071-12.374s20.417 5.734 28.071 12.374c8.008 6.946 17.084 14.819 34.624 14.819a5 5 0 1 0 0-10z"/><path d="m210.081 305.608h260.413v20.807h-260.413z"/><path d="m147.972 157.304h28.221v18.666h-28.221z"/><path d="m243.815 266.246h146.123a5 5 0 0 0 5-5v-74.608a9.327 9.327 0 0 0 -1.228-4.627v-.006a9.322 9.322 0 0 0 -3.362-3.409l-67.539-39.8v-17.068a16.08 16.08 0 0 0 9.5-14.263 5.166 5.166 0 0 0 -4.289-5.376 5 5 0 0 0 -5.7 4.746 6.691 6.691 0 0 1 -1.84 4.573 6.127 6.127 0 0 1 -5.377 1.649 6.066 6.066 0 0 1 -4.735-4.175 6.142 6.142 0 0 1 2.895-7.2 16.079 16.079 0 0 0 7.937-14.182v-28.4h101.541v-10.3h-113.31v10.3h1.769v28.479a6.368 6.368 0 0 1 -3.091 5.528 16.1 16.1 0 0 0 4.7 29.667v15.983l-69.309 39.821a9.326 9.326 0 0 0 -4.681 8.088v74.58a5 5 0 0 0 4.996 5zm41.736-21.829a5 5 0 0 1 -10 0v-43.427a5 5 0 0 1 10 0zm36.326 0a5 5 0 0 1 -10 0v-43.427a5 5 0 1 1 10 0zm36.326 0a5 5 0 1 1 -10 0v-43.427a5 5 0 0 1 10 0zm-40.431-96.981 53.834 31.726h-109.051z"/><path d="m432.741 23.414h18.286v272.195h-18.286z"/><path d="m129.711 276.537h18.563v25.283h-18.563z"/><path d="m200.081 239.473h-67.723a68.676 68.676 0 0 0 -58.643 33.249l-32.131 53.694h158.5zm-16.963 67.347a5 5 0 0 1 -5 5h-78.251a5 5 0 0 1 -5-5v-19.283a21.024 21.024 0 0 1 21-21h62.251a5 5 0 0 1 5 5z"/><path d="m147.972 185.969h28.221v43.504h-28.221z"/><path d="m158.274 276.537h14.844v25.283h-14.844z"/><path d="m78.56 420.781c7.653 6.639 14.263 12.373 28.07 12.373s20.413-5.734 28.065-12.373c8.006-6.947 17.08-14.82 34.618-14.82s26.614 7.873 34.62 14.82c7.652 6.639 14.261 12.373 28.066 12.373s20.417-5.734 28.07-12.373c8.007-6.947 17.083-14.82 34.622-14.82s26.617 7.873 34.624 14.82c7.654 6.639 14.264 12.373 28.071 12.373s20.418-5.734 28.072-12.374c8.008-6.946 17.084-14.819 34.624-14.819s26.616 7.873 34.624 14.82a93.379 93.379 0 0 0 7.64 6.168l22.7-90.533h-460.823l35.751 72.224c7.911 2.9 13.471 7.705 18.586 12.141zm63.827-59.958h169.524a5 5 0 0 1 0 10h-169.524a5 5 0 0 1 0-10zm-23.743 0h5.829a5 5 0 1 1 0 10h-5.829a5 5 0 0 1 0-10z"/><path d="m104.867 287.537v14.283h14.844v-25.283h-3.844a11.013 11.013 0 0 0 -11 11z"/><path d="m482.777 448.154c-13.807 0-20.417-5.734-28.071-12.373-8.008-6.947-17.084-14.82-34.624-14.82s-26.616 7.873-34.624 14.819c-7.654 6.64-14.265 12.374-28.072 12.374s-20.417-5.734-28.071-12.373c-8.007-6.947-17.084-14.82-34.624-14.82s-26.615 7.873-34.622 14.82c-7.653 6.639-14.263 12.373-28.07 12.373s-20.414-5.734-28.066-12.373c-8.006-6.947-17.081-14.82-34.62-14.82s-26.612 7.873-34.618 14.82c-7.652 6.639-14.261 12.373-28.065 12.373s-20.417-5.734-28.07-12.373c-8.008-6.947-17.083-14.82-34.623-14.82a5 5 0 0 0 0 10c13.806 0 20.417 5.734 28.07 12.373 8.007 6.947 17.083 14.82 34.623 14.82s26.612-7.873 34.618-14.82c7.652-6.639 14.262-12.373 28.065-12.373s20.415 5.734 28.067 12.373c8.006 6.947 17.081 14.82 34.619 14.82s26.616-7.873 34.623-14.82c7.653-6.639 14.263-12.373 28.069-12.373s20.418 5.734 28.072 12.373c8.008 6.947 17.083 14.82 34.623 14.82s26.617-7.873 34.625-14.82c7.654-6.639 14.263-12.373 28.071-12.373s20.417 5.734 28.071 12.373c8.008 6.947 17.084 14.82 34.624 14.82a5 5 0 1 0 0-10z"/></svg>